<?xml version="1.0" encoding="utf-8"?>
<!-- Generator: Adobe Illustrator 15.0.0, SVG Export Plug-In . SVG Version: 6.00 Build 0)  -->
<!DOCTYPE svg PUBLIC "-//W3C//DTD SVG 1.1//EN" "http://www.w3.org/Graphics/SVG/1.1/DTD/svg11.dtd">
<svg version="1.1" id="Layer_1" xmlns="http://www.w3.org/2000/svg" xmlns:xlink="http://www.w3.org/1999/xlink" x="0px" y="0px"
	 width="595.28px" height="841.89px" viewBox="0 0 595.28 841.89" enable-background="new 0 0 595.28 841.89" xml:space="preserve">
<g>
	<path fill="#3C3C3B" d="M126.081,517.158c2.001-4.768,4.042-9.514,6.125-14.231c0.146-0.312,0.293-0.623,0.438-0.937
		c-0.063-0.04-0.125-0.081-0.186-0.121c-0.188,0.283-0.375,0.568-0.565,0.852c-2.805,4.246-5.606,8.493-8.412,12.736
		c-1.092-0.72-2.185-1.453-3.27-2.189c4.549-6.696,9.1-13.393,13.649-20.085c1.318,0.893,2.64,1.775,3.971,2.646
		c-1.382,3.518-2.736,7.052-4.063,10.597c-0.181,0.4-0.36,0.793-0.538,1.186c0.022,0.019,0.042,0.031,0.061,0.04
		c0.288-0.324,0.573-0.652,0.854-0.982c2.67-2.683,5.314-5.393,7.934-8.112c1.34,0.843,2.688,1.673,4.037,2.489
		c-4.185,6.928-8.373,13.857-12.56,20.784c-1.114-0.674-2.228-1.356-3.335-2.047c2.689-4.321,5.379-8.64,8.067-12.957
		c0.18-0.291,0.36-0.581,0.54-0.871c-0.062-0.037-0.126-0.079-0.188-0.118c-0.221,0.265-0.446,0.526-0.666,0.788
		c-3.419,3.866-6.877,7.701-10.37,11.508C127.095,517.808,126.588,517.482,126.081,517.158z"/>
	<path fill="#3C3C3B" d="M153.225,505.195c1.12,0.633,2.245,1.258,3.373,1.876c-3.876,7.104-7.752,14.213-11.63,21.315
		c-1.227-0.67-2.453-1.346-3.673-2.037C145.273,519.299,149.248,512.25,153.225,505.195z"/>
	<path fill="#3C3C3B" d="M166.116,529.72c-0.467,1.011-0.933,2.019-1.399,3.026c0.004-0.012-2.167,4.83-7.231,2.39
		c-5.052-2.477-2.607-7.179-2.608-7.163c2.159-4.253,4.321-8.5,6.482-12.755c0.001,0,2.353-4.665,6.956-2.41
		c4.613,2.223,2.406,6.94,2.403,6.953c-0.467,1.011-0.933,2.021-1.399,3.029c-1.116-0.516-2.228-1.039-3.337-1.569
		c0.479-1.005,0.958-2.007,1.438-3.011c0.006-0.004,0.897-1.544-0.557-2.247c-1.224-0.599-2.008,1.002-2.01,1.005
		c-2.103,4.277-4.201,8.563-6.304,12.84c0-0.004-0.786,1.604,0.518,2.239c1.551,0.749,2.185-0.93,2.182-0.93
		c0.479-1.005,0.959-2.006,1.438-3.011C163.829,528.653,164.971,529.19,166.116,529.72z"/>
	<path fill="#3C3C3B" d="M177.019,543.479c0.603-3.435,1.228-6.864,1.88-10.286c-0.333-0.134-0.665-0.272-0.996-0.409
		c-1.303,3.157-2.604,6.313-3.906,9.47c-1.278-0.528-2.552-1.063-3.824-1.613c3.191-7.439,6.382-14.877,9.571-22.319
		c1.169,0.503,2.339,0.996,3.511,1.479c4.161,1.703,5.133,4.672,3.502,8.939c-0.864,2.246-2.29,4.037-4.041,4.346
		c-0.647,3.961-1.262,7.927-1.844,11.901C179.585,544.494,178.3,543.992,177.019,543.479z M181.909,523.07
		c-0.916,2.219-1.83,4.439-2.746,6.659c1.015,0.419,2.768,0.989,4.052-2.24C184.5,524.269,182.901,523.483,181.909,523.07z"/>
	<path fill="#3C3C3B" d="M193.267,549.71c-5.26-1.777-3.444-6.754-3.451-6.741c1.592-4.493,3.183-8.99,4.775-13.485
		c0.003-0.013,1.729-4.927,6.522-3.314c4.805,1.585,3.23,6.553,3.227,6.562c-1.426,4.553-2.849,9.104-4.274,13.657
		C200.071,546.375,198.541,551.442,193.267,549.71z M200.019,529.461c-1.273-0.422-1.78,1.282-1.784,1.285
		c-1.528,4.516-3.058,9.033-4.585,13.552c-0.001-0.004-0.646,1.672,0.715,2.121c1.365,0.456,1.849-1.272,1.848-1.267
		c1.486-4.534,2.975-9.063,4.461-13.595C200.672,531.558,201.299,529.889,200.019,529.461z"/>
	<path fill="#3C3C3B" d="M223.605,557.795c-1.038-0.229-2.073-0.459-3.107-0.698c0.602-8.172,1.304-16.325,2.109-24.463
		c1.126,0.277,2.259,0.547,3.389,0.806c-0.458,4.215-0.897,8.43-1.312,12.649c-0.033,0.262-0.067,0.523-0.1,0.789
		c0.094,0.022,0.189,0.044,0.285,0.065c0.094-0.249,0.186-0.503,0.28-0.749c1.462-3.987,2.9-7.981,4.315-11.978
		c-0.006,0.006,2.622,0.558,2.656,0.561c-0.33,4.229-0.635,8.463-0.917,12.696c-0.016,0.268-0.033,0.53-0.048,0.799
		c0.096,0.019,0.191,0.037,0.288,0.056c0.075-0.255,0.149-0.506,0.224-0.76c1.333-4.026,2.645-8.058,3.932-12.095
		c1.137,0.218,2.277,0.43,3.418,0.636c-2.564,7.763-5.229,15.501-7.991,23.214c-1.039-0.199-2.081-0.404-3.12-0.617
		c0.149-3.881,0.322-7.76,0.52-11.635c0.026-0.479,0.053-0.958,0.079-1.438c-0.046-0.011-0.095-0.019-0.143-0.029
		c-0.169,0.446-0.337,0.896-0.508,1.346C226.46,550.568,225.045,554.188,223.605,557.795z"/>
	<path fill="#3C3C3B" d="M245.928,537.262c2.825,0.434,5.659,0.824,8.493,1.167c-0.148,1.213-0.294,2.43-0.442,3.642
		c-1.618-0.193-3.234-0.406-4.849-0.631c-0.293,2.103-0.587,4.21-0.882,6.313c1.189,0.165,2.375,0.324,3.568,0.477
		c-0.165,1.29-0.328,2.578-0.491,3.869c-1.208-0.152-2.411-0.314-3.615-0.484c-0.309,2.204-0.617,4.406-0.923,6.609
		c1.711,0.241,3.427,0.465,5.143,0.671c-0.148,1.217-0.296,2.43-0.442,3.645c-3.089-0.378-6.172-0.802-9.249-1.272
		C243.468,553.265,244.697,545.265,245.928,537.262z"/>
	<path fill="#3C3C3B" d="M259.363,563.387c0.765-8.057,1.528-16.116,2.292-24.175c-0.003,0,1.866,0.175,3.281,0.29
		c4.445,0.359,6.707,2.087,6.438,6.911c-0.131,2.233-0.73,3.498-2.703,4.864c-0.001,0.003,2.631,1.289,2.368,6.101
		c-0.194,3.556-1.791,6.642-6.676,6.439C262.697,563.687,261.028,563.543,259.363,563.387z M265.098,543.063
		c-0.173,2.152-0.347,4.302-0.522,6.456c0.716,0.056,2.864,0.317,3.096-3.016C267.899,543.181,265.799,543.118,265.098,543.063z
		 M264.313,552.778c-0.2,2.479-0.401,4.961-0.602,7.442c0.737,0.061,2.961,0.489,3.238-3.499
		C267.228,552.734,265.036,552.838,264.313,552.778z"/>
	<path fill="#3C3C3B" d="M298.998,543.854c-1.741,0.076-3.485,0.131-5.227,0.17c0.05,2.124,0.101,4.249,0.144,6.375
		c1.198-0.029,2.396-0.063,3.588-0.104c0.047,1.223,0.09,2.444,0.135,3.663c-1.214,0.044-2.424,0.082-3.639,0.106
		c0.081,3.526,0.162,7.048,0.24,10.571c-1.354,0.031-2.711,0.053-4.07,0.065c-0.073-8.095-0.148-16.189-0.223-24.284
		c-0.001-0.031,0.385,0.071,8.898-0.225C298.895,541.411,298.944,542.634,298.998,543.854z"/>
	<path fill="#3C3C3B" d="M314.424,563.49c-1.015-3.335-2-6.678-2.961-10.026c-0.354,0.031-0.705,0.061-1.055,0.089
		c0.271,3.403,0.543,6.807,0.817,10.208c-1.354,0.109-2.708,0.209-4.063,0.298c-0.539-8.076-1.073-16.154-1.61-24.229
		c1.242-0.084,2.487-0.176,3.732-0.275c4.408-0.361,6.589,1.847,7.073,6.383c0.246,2.397-0.2,4.645-1.595,5.705
		c1.205,3.824,2.446,7.641,3.72,11.447C317.129,563.234,315.774,563.365,314.424,563.49z M309.565,543.081
		c0.193,2.393,0.387,4.783,0.577,7.179c1.077-0.084,2.865-0.371,2.55-3.835C312.37,542.975,310.617,542.997,309.565,543.081z"/>
	<path fill="#3C3C3B" d="M325.226,562.308c0.358-8.207,0.603-16.409,0.733-24.604c1.513-0.215,3.023-0.442,4.53-0.684
		c2.546,7.791,5.204,15.556,7.969,23.29c-1.304,0.23-2.611,0.449-3.919,0.654c-0.512-1.59-1.017-3.182-1.516-4.773
		c-1.276,0.199-2.549,0.394-3.825,0.574c-0.01,1.673-0.025,3.338-0.041,5.011C327.847,561.964,326.536,562.14,325.226,562.308z
		 M329.616,545.146c-0.065-0.201-0.131-0.4-0.2-0.605c-0.068,0.012-0.141,0.024-0.212,0.035c-0.003,0.212-0.006,0.424-0.013,0.636
		c0.016,2.584,0.019,5.163,0.013,7.747c0.898-0.131,1.791-0.265,2.687-0.406C331.123,550.089,330.364,547.618,329.616,545.146z"/>
	<path fill="#3C3C3B" d="M352.53,557.515c-1.966-4.773-3.888-9.561-5.766-14.362c-0.119-0.322-0.237-0.646-0.354-0.971
		c-0.071,0.013-0.14,0.031-0.212,0.044c0.072,0.334,0.144,0.667,0.216,1.002c1.061,4.977,2.128,9.953,3.188,14.926
		c-1.235,0.267-2.471,0.522-3.71,0.771c-1.588-7.94-3.183-15.875-4.771-23.813c1.498-0.301,3.002-0.615,4.493-0.942
		c1.517,3.456,3.058,6.908,4.63,10.346c0.153,0.409,0.306,0.812,0.462,1.218c0.025-0.008,0.047-0.011,0.068-0.016
		c-0.034-0.435-0.071-0.864-0.105-1.299c-0.068-3.778-0.169-7.553-0.3-11.325c1.492-0.354,2.983-0.722,4.469-1.1
		c2,7.849,3.993,15.692,5.993,23.535c-1.226,0.313-2.455,0.618-3.685,0.911c-1.192-4.942-2.385-9.891-3.579-14.839
		c-0.078-0.331-0.159-0.662-0.24-0.992c-0.068,0.016-0.138,0.031-0.206,0.05c0.031,0.344,0.063,0.684,0.1,1.029
		c0.381,5.137,0.718,10.288,1.009,15.442C353.666,557.258,353.095,557.386,352.53,557.515z"/>
	<path fill="#3C3C3B" d="M362.584,529.904c2.764-0.79,5.522-1.625,8.265-2.505c0.374,1.166,0.746,2.33,1.12,3.493
		c-1.565,0.5-3.132,0.986-4.704,1.461c0.611,2.037,1.223,4.071,1.837,6.106c1.158-0.35,2.313-0.703,3.467-1.067
		c0.39,1.238,0.78,2.479,1.173,3.72c-1.173,0.371-2.34,0.73-3.516,1.082c0.643,2.128,1.281,4.259,1.924,6.39
		c1.667-0.502,3.333-1.021,4.993-1.553c0.374,1.166,0.748,2.33,1.123,3.493c-2.989,0.958-5.99,1.869-9.002,2.728
		C367.036,545.471,364.812,537.688,362.584,529.904z"/>
	<path fill="#3C3C3B" d="M391.43,545.964c-1.005,0.374-2.013,0.743-3.018,1.107c-3.935-7.189-7.775-14.418-11.52-21.688
		c1.108-0.382,2.209-0.771,3.311-1.171c1.9,3.788,3.826,7.566,5.77,11.332c0.115,0.24,0.23,0.48,0.343,0.722
		c0.094-0.034,0.188-0.07,0.277-0.104c-0.059-0.259-0.115-0.521-0.171-0.782c-0.931-4.14-1.882-8.273-2.858-12.405
		c0.003,0.006,2.53-0.965,2.565-0.978c2.021,3.726,4.068,7.445,6.134,11.154c0.134,0.232,0.268,0.463,0.396,0.696
		c0.095-0.037,0.185-0.071,0.278-0.109c-0.074-0.255-0.152-0.508-0.226-0.76c-1.061-4.107-2.139-8.207-3.244-12.301
		c1.092-0.438,2.179-0.883,3.265-1.339c2.043,7.919,3.99,15.873,5.841,23.854c-1,0.398-1.997,0.796-2.995,1.186
		c-1.989-3.339-3.95-6.688-5.896-10.047c-0.24-0.419-0.477-0.833-0.714-1.252c-0.047,0.02-0.09,0.037-0.137,0.053
		c0.103,0.469,0.202,0.94,0.302,1.408C389.923,538.341,390.688,542.147,391.43,545.964z"/>
	<path fill="#3C3C3B" d="M414.115,536.703c-5.087,2.365-7.197-2.491-7.194-2.48c-1.947-4.353-3.897-8.705-5.844-13.059
		c-0.003-0.006-2.156-4.765,2.48-6.92c4.62-2.196,6.921,2.482,6.921,2.498c2.108,4.275,4.218,8.553,6.328,12.831
		C416.799,529.564,419.187,534.295,414.115,536.703z M405.036,517.386c-1.229,0.577-0.418,2.165-0.418,2.163
		c2.01,4.324,4.016,8.652,6.025,12.977c-0.003,0,0.687,1.647,1.993,1.039c1.316-0.622,0.476-2.206,0.479-2.203
		c-2.05-4.307-4.098-8.611-6.147-12.918C406.965,518.441,406.271,516.806,405.036,517.386z"/>
	<path fill="#3C3C3B" d="M433.273,526.522c-2.305-2.618-4.592-5.252-6.857-7.9c-0.315,0.175-0.633,0.349-0.952,0.523
		c1.642,2.995,3.28,5.987,4.922,8.982c-1.228,0.672-2.459,1.337-3.691,1.991c-3.788-7.154-7.579-14.309-11.367-21.461
		c1.133-0.602,2.265-1.21,3.391-1.83c3.995-2.194,6.942-1.115,9.239,2.829c1.214,2.085,1.698,4.331,0.821,5.894
		c2.687,2.982,5.403,5.945,8.146,8.883C435.714,525.14,434.498,525.839,433.273,526.522z M420.416,509.928
		c1.154,2.11,2.307,4.213,3.461,6.319c0.973-0.531,2.535-1.56,0.833-4.581C423.009,508.646,421.37,509.407,420.416,509.928z"/>
	<path fill="#3C3C3B" d="M434.473,497.495c1.45,2.274,2.905,4.55,4.355,6.82c0.071,0.112,0.144,0.225,0.212,0.337
		c0.045-0.028,0.084-0.056,0.126-0.084c-0.021-0.144-0.039-0.287-0.058-0.434c-0.518-2.87-1.063-5.734-1.641-8.584
		c1.055-0.692,2.109-1.394,3.157-2.105c0.505,2.877,0.98,5.765,1.421,8.668c4.143,3.774,8.349,7.49,12.621,11.154
		c-1.144,0.773-2.288,1.537-3.437,2.299c-2.761-2.402-5.494-4.827-8.203-7.272c-0.121-0.118-0.243-0.237-0.361-0.355
		c-0.034,0.019-0.065,0.041-0.094,0.063c0.025,0.178,0.05,0.358,0.075,0.539c0.09,0.725,0.181,1.454,0.271,2.181
		c1.539,2.412,3.081,4.827,4.621,7.242c-1.191,0.759-2.383,1.51-3.582,2.253c-4-6.461-12.773-20.655-12.776-20.652
		C432.281,498.88,433.378,498.194,434.473,497.495z"/>
</g>
<g>
	<g>
		<path fill="#3C3C3B" d="M334.027,478.787c0,27.912-22.627,50.545-50.543,50.545c-27.914,0-50.541-22.633-50.541-50.545
			c0-27.917,22.626-50.543,50.541-50.543C311.4,428.244,334.027,450.87,334.027,478.787z"/>
	</g>
	<polygon fill="#FFDE00" points="260.878,513.488 281.327,482.387 260.878,482.387 306.096,444.084 287.949,474.038 
		306.096,474.038 	"/>
</g>
<g>
	<path fill="#3C3C3B" d="M148.682,293.955c23.501-0.683,27.297,25.642,27.297,44.248l-19.162,2.268
		c0-11.121-1.266-24.053-7.774-24.053c-5.062,0.229-6.688,7.037-6.688,16.566c0,11.347,7.772,24.052,15.365,37.893
		c9.04,17.019,18.258,33.585,18.258,51.511c0,22.238-5.785,41.978-27.116,41.978c-25.128,0-28.381-23.826-28.381-48.56l19.163-2.268
		c0,13.842,1.084,28.363,9.218,28.363c5.785,0,7.955-7.938,7.955-18.377c0-11.121-8.316-24.507-15.729-38.575
		c-9.218-17.02-17.896-34.038-17.896-51.965C123.193,314.829,130.244,294.409,148.682,293.955z"/>
	<path fill="#3C3C3B" d="M190.988,295.398c0,0,18.62,0,19.524,0c16.993,0,34.347,10.701,34.347,46.153
		c0,35.455-17.354,46.363-34.347,46.363v61.678h-19.524V295.398z M210.513,364.837c12.292,0,14.642-5.243,14.642-22.447
		c0-17.201-2.35-23.916-14.642-23.916V364.837z"/>
	<path fill="#3C3C3B" d="M414.197,295.484v56.253v2.755h0.725l0.905-2.755l16.268-56.253h18.983l-17.897,55.565l20.243,113.197
		h-18.98l-13.556-73.476l-0.544-3.445h-0.542l-1.087,3.445l-4.518,13.775v53.31h-19.522c0-52.808,0-162.372,0-162.372H414.197z"/>
	<path fill="#3C3C3B" d="M366.172,449.592l-10.125-65.033h-5.241v55.447h-19.523V295.398h19.523
		c23.139,0,33.261,15.524,33.261,44.474c0,15.315-3.436,29.162-10.846,35.035l12.471,74.685H366.172z M350.806,317.845v45.733
		c5.422,0,14.461-0.839,14.461-22.866C365.267,318.686,356.228,317.845,350.806,317.845z"/>
	<g>
		<polygon fill="none" points="284.571,338.603 284.028,335.168 282.943,335.168 282.4,338.603 276.796,380.543 290.175,380.543 		
			"/>
		<path fill="#3C3C3B" d="M274.084,401.151h18.8l2.59,19.398c6.952,1.421,13.422,4.107,19.257,7.719h0.749l-20.063-132.871h-23.865
			l-20.066,132.871h0.746c5.841-3.614,12.314-6.299,19.266-7.72L274.084,401.151z M282.4,338.603l0.543-3.435h1.085l0.543,3.435
			l5.604,41.94h-13.379L282.4,338.603z"/>
	</g>
</g>
<path fill="#3C3C3B" d="M336.149,500.574c4.854-3.632,8.274-11.242,8.649-20.19h103.608c0.537,0.827,1.422,1.406,2.479,1.406
	c1.657,0,3.006-1.344,3.006-3.003c0-1.657-1.349-3.003-3.006-3.003c-1.058,0-1.942,0.578-2.479,1.404H344.799
	c-0.375-8.948-3.795-16.559-8.649-20.188c3.12,5.891,5.005,13.485,5.005,21.786C341.154,487.089,339.27,494.684,336.149,500.574z"/>
<path fill="#3C3C3B" d="M231.655,457.001c-4.858,3.633-8.275,11.241-8.649,20.191h-97.222c-0.537-0.827-1.419-1.408-2.477-1.408
	c-1.661,0-3.005,1.346-3.005,3.006c0,1.656,1.345,3,3.005,3c1.058,0,1.94-0.576,2.477-1.403h97.222
	c0.374,8.948,3.792,16.559,8.649,20.188c-3.121-5.891-5.005-13.485-5.005-21.784C226.65,470.486,228.535,462.892,231.655,457.001z"
	/>
</svg>
